IBM Plex Thai-Regular.ufo
<glyph name="seven" format="1">
  <advance width="600"/>
  <unicode hex="0037"/>
  <outline>
    <contour>
      <point x="265" y="0" type="line" name="hr00"/>
      <point x="527" y="624" type="line"/>
      <point x="527" y="698" type="line"/>
      <point x="69" y="698" type="line"/>
      <point x="69" y="496" type="line"/>
      <point x="144" y="496" type="line"/>
      <point x="144" y="626" type="line"/>
      <point x="442" y="626" type="line"/>
      <point x="175" y="0" type="line"/>
    </contour>
  </outline>
</glyph>
<glyph name="khoKhwai-thai" format="1">
  <advance width="636"/>
  <unicode hex="0E04"/>
  <outline>
    <contour>
      <point x="80" y="0" type="line" name="hr00"/>
      <point x="160" y="0" type="line"/>
      <point x="160" y="127" type="line" smooth="yes"/>
      <point x="160" y="185"/>
      <point x="215" y="221"/>
      <point x="300" y="221" type="curve" smooth="yes"/>
      <point x="346" y="221" type="line"/>
      <point x="346" y="301" type="line"/>
      <point x="313" y="301" type="line" smooth="yes"/>
      <point x="228" y="301"/>
      <point x="183" y="254"/>
      <point x="165" y="204" type="curve"/>
      <point x="160" y="204" type="line"/>
      <point x="160" y="334" type="line" smooth="yes"/>
      <point x="160" y="434"/>
      <point x="219" y="489"/>
      <point x="318" y="489" type="curve" smooth="yes"/>
      <point x="417" y="489"/>
      <point x="476" y="434"/>
      <point x="476" y="334" type="curve" smooth="yes"/>
      <point x="476" y="0" type="line"/>
      <point x="556" y="0" type="line"/>
      <point x="556" y="342" type="line" smooth="yes"/>
      <point x="556" y="474"/>
      <point x="463" y="558"/>
      <point x="318" y="558" type="curve" smooth="yes"/>
      <point x="172" y="558"/>
      <point x="80" y="474"/>
      <point x="80" y="342" type="curve" smooth="yes"/>
    </contour>
    <contour>
      <point x="556.0" y="0.0" type="move" name="bottomright"/>
    </contour>
    <contour>
      <point x="319.0" y="558.0" type="move" name="top"/>
    </contour>
    <contour>
      <point x="556.0" y="600.0" type="move" name="topright"/>
    </contour>
  </outline>
</glyph>
<glyph name="thoThan-thai" format="1">
  <advance width="619"/>
  <unicode hex="0E10"/>
  <outline>
    <contour>
      <point x="223" y="0" type="line" name="hr00"/>
      <point x="311" y="0" type="line" smooth="yes"/>
      <point x="435" y="0"/>
      <point x="514" y="105"/>
      <point x="514" y="278" type="curve" smooth="yes"/>
      <point x="514" y="376"/>
      <point x="486" y="451"/>
      <point x="435" y="499" type="curve"/>
      <point x="435" y="500" type="line"/>
      <point x="610" y="500" type="line"/>
      <point x="610" y="574" type="line"/>
      <point x="463" y="574" type="line" smooth="yes"/>
      <point x="425" y="574"/>
      <point x="409" y="557"/>
      <point x="407" y="521" type="curve"/>
      <point x="370" y="545"/>
      <point x="324" y="558"/>
      <point x="270" y="558" type="curve" smooth="yes"/>
      <point x="141" y="558"/>
      <point x="61" y="501"/>
      <point x="26" y="433" type="curve"/>
      <point x="78" y="387" type="line"/>
      <point x="113" y="447"/>
      <point x="173" y="489"/>
      <point x="267" y="489" type="curve" smooth="yes"/>
      <point x="367" y="489"/>
      <point x="429" y="426"/>
      <point x="429" y="319" type="curve" smooth="yes"/>
      <point x="429" y="237" type="line" smooth="yes"/>
      <point x="429" y="131"/>
      <point x="385" y="67"/>
      <point x="320" y="67" type="curve" smooth="yes"/>
      <point x="282" y="67" type="line"/>
      <point x="210" y="272" type="line" smooth="yes"/>
      <point x="203" y="293"/>
      <point x="183" y="301"/>
      <point x="163" y="301" type="curve" smooth="yes"/>
      <point x="81" y="301" type="line"/>
      <point x="81" y="232" type="line"/>
      <point x="142" y="232" type="line"/>
    </contour>
    <contour>
      <point x="94" y="-232" type="line"/>
      <point x="142" y="-232" type="line" smooth="yes"/>
      <point x="192" y="-232"/>
      <point x="235" y="-211"/>
      <point x="248" y="-151" type="curve"/>
      <point x="253" y="-151" type="line"/>
      <point x="267" y="-211"/>
      <point x="317" y="-232"/>
      <point x="361" y="-232" type="curve" smooth="yes"/>
      <point x="437" y="-232"/>
      <point x="483" y="-182"/>
      <point x="483" y="-98" type="curve" smooth="yes"/>
      <point x="483" y="-57" type="line"/>
      <point x="403" y="-57" type="line"/>
      <point x="403" y="-98" type="line" smooth="yes"/>
      <point x="403" y="-143"/>
      <point x="381" y="-166"/>
      <point x="346" y="-166" type="curve" smooth="yes"/>
      <point x="302" y="-166"/>
      <point x="284" y="-126"/>
      <point x="280" y="-91" type="curve"/>
      <point x="220" y="-91" type="line"/>
      <point x="217" y="-126"/>
      <point x="204" y="-166"/>
      <point x="146" y="-166" type="curve" smooth="yes"/>
      <point x="94" y="-166" type="line"/>
    </contour>
    <contour>
      <point x="271.0" y="558.0" type="move" name="top"/>
    </contour>
    <contour>
      <point x="483.0" y="600.0" type="move" name="topright"/>
    </contour>
  </outline>
</glyph>
<glyph name="thoPhuthao-thai" format="1">
  <advance width="958"/>
  <unicode hex="0E12"/>
  <outline>
    <contour>
      <point x="278" y="-12" type="curve" smooth="yes" name="hr00"/>
      <point x="300" y="-12"/>
      <point x="326" y="-11"/>
      <point x="351" y="-6" type="curve"/>
      <point x="341" y="61" type="line"/>
      <point x="325" y="58"/>
      <point x="307" y="57"/>
      <point x="293" y="57" type="curve" smooth="yes"/>
      <point x="191" y="57"/>
      <point x="146" y="125"/>
      <point x="146" y="237" type="curve" smooth="yes"/>
      <point x="146" y="317" type="line" smooth="yes"/>
      <point x="146" y="416"/>
      <point x="168" y="489"/>
      <point x="229" y="489" type="curve" smooth="yes"/>
      <point x="275" y="489"/>
      <point x="288" y="450"/>
      <point x="293" y="409" type="curve"/>
      <point x="345" y="409" type="line"/>
      <point x="351" y="450"/>
      <point x="368" y="489"/>
      <point x="413" y="489" type="curve" smooth="yes"/>
      <point x="450" y="489"/>
      <point x="472" y="465"/>
      <point x="472" y="413" type="curve" smooth="yes"/>
      <point x="472" y="0" type="line"/>
      <point x="551" y="0" type="line"/>
      <point x="551" y="89" type="line"/>
      <point x="556" y="89" type="line"/>
      <point x="575" y="36"/>
      <point x="619" y="-12"/>
      <point x="704" y="-12" type="curve" smooth="yes"/>
      <point x="813" y="-12"/>
      <point x="878" y="64"/>
      <point x="878" y="198" type="curve" smooth="yes"/>
      <point x="878" y="546" type="line"/>
      <point x="798" y="546" type="line"/>
      <point x="798" y="208" type="line" smooth="yes"/>
      <point x="798" y="108"/>
      <point x="758" y="58"/>
      <point x="679" y="58" type="curve" smooth="yes"/>
      <point x="616" y="58"/>
      <point x="551" y="93"/>
      <point x="551" y="168" type="curve" smooth="yes"/>
      <point x="551" y="414" type="line" smooth="yes"/>
      <point x="551" y="504"/>
      <point x="508" y="558"/>
      <point x="432" y="558" type="curve" smooth="yes"/>
      <point x="381" y="558"/>
      <point x="338" y="531"/>
      <point x="325" y="479" type="curve"/>
      <point x="320" y="479" type="line"/>
      <point x="307" y="531"/>
      <point x="266" y="558"/>
      <point x="218" y="558" type="curve" smooth="yes"/>
      <point x="112" y="558"/>
      <point x="60" y="453"/>
      <point x="60" y="275" type="curve" smooth="yes"/>
      <point x="60" y="95"/>
      <point x="137" y="-12"/>
    </contour>
    <contour>
      <point x="878.0" y="0.0" type="move" name="bottomright"/>
    </contour>
    <contour>
      <point x="513.0" y="558.0" type="move" name="top"/>
    </contour>
    <contour>
      <point x="878.0" y="600.0" type="move" name="topright"/>
    </contour>
  </outline>
</glyph>
<glyph name="doDek-thai" format="1">
  <advance width="639"/>
  <unicode hex="0E14"/>
  <outline>
    <contour>
      <point x="294" y="-12" type="curve" smooth="yes" name="hr00"/>
      <point x="315" y="-12"/>
      <point x="342" y="-12"/>
      <point x="365" y="-6" type="curve"/>
      <point x="355" y="61" type="line"/>
      <point x="339" y="57"/>
      <point x="324" y="57"/>
      <point x="309" y="57" type="curve" smooth="yes"/>
      <point x="199" y="57"/>
      <point x="146" y="121"/>
      <point x="146" y="237" type="curve" smooth="yes"/>
      <point x="146" y="309" type="line" smooth="yes"/>
      <point x="146" y="419"/>
      <point x="210" y="489"/>
      <point x="316" y="489" type="curve" smooth="yes"/>
      <point x="417" y="489"/>
      <point x="479" y="427"/>
      <point x="479" y="322" type="curve" smooth="yes"/>
      <point x="479" y="0" type="line"/>
      <point x="559" y="0" type="line"/>
      <point x="559" y="333" type="line" smooth="yes"/>
      <point x="559" y="469"/>
      <point x="464" y="558"/>
      <point x="319" y="558" type="curve" smooth="yes"/>
      <point x="158" y="558"/>
      <point x="60" y="445"/>
      <point x="60" y="273" type="curve" smooth="yes"/>
      <point x="60" y="97"/>
      <point x="145" y="-12"/>
    </contour>
    <contour>
      <point x="559.0" y="0.0" type="move" name="bottomright"/>
    </contour>
    <contour>
      <point x="319.0" y="558.0" type="move" name="top"/>
    </contour>
    <contour>
      <point x="559.0" y="600.0" type="move" name="topright"/>
    </contour>
  </outline>
</glyph>
<glyph name="toTao-thai" format="1">
  <advance width="654"/>
  <unicode hex="0E15"/>
  <outline>
    <contour>
      <point x="293" y="-12" type="curve" smooth="yes" name="hr00"/>
      <point x="314" y="-12"/>
      <point x="340" y="-11"/>
      <point x="365" y="-6" type="curve"/>
      <point x="355" y="61" type="line"/>
      <point x="339" y="58"/>
      <point x="321" y="57"/>
      <point x="307" y="57" type="curve" smooth="yes"/>
      <point x="195" y="57"/>
      <point x="146" y="126"/>
      <point x="146" y="237" type="curve" smooth="yes"/>
      <point x="146" y="317" type="line" smooth="yes"/>
      <point x="146" y="416"/>
      <point x="168" y="489"/>
      <point x="236" y="489" type="curve" smooth="yes"/>
      <point x="288" y="489"/>
      <point x="301" y="448"/>
      <point x="307" y="409" type="curve"/>
      <point x="359" y="409" type="line"/>
      <point x="365" y="450"/>
      <point x="382" y="489"/>
      <point x="431" y="489" type="curve" smooth="yes"/>
      <point x="471" y="489"/>
      <point x="494" y="465"/>
      <point x="494" y="413" type="curve" smooth="yes"/>
      <point x="494" y="0" type="line"/>
      <point x="574" y="0" type="line"/>
      <point x="574" y="414" type="line" smooth="yes"/>
      <point x="574" y="504"/>
      <point x="529" y="558"/>
      <point x="449" y="558" type="curve" smooth="yes"/>
      <point x="397" y="558"/>
      <point x="352" y="531"/>
      <point x="338" y="479" type="curve"/>
      <point x="334" y="479" type="line"/>
      <point x="321" y="531"/>
      <point x="276" y="558"/>
      <point x="225" y="558" type="curve" smooth="yes"/>
      <point x="112" y="558"/>
      <point x="60" y="453"/>
      <point x="60" y="275" type="curve" smooth="yes"/>
      <point x="60" y="95"/>
      <point x="142" y="-12"/>
    </contour>
    <contour>
      <point x="574.0" y="0.0" type="move" name="bottomright"/>
    </contour>
    <contour>
      <point x="334.0" y="558.0" type="move" name="top"/>
    </contour>
    <contour>
      <point x="574.0" y="600.0" type="move" name="topright"/>
    </contour>
  </outline>
</glyph>
<glyph name="thoThahan-thai" format="1">
  <advance width="596"/>
  <unicode hex="0E17"/>
  <outline>
    <contour>
      <point x="85" y="0" type="line" name="hr00"/>
      <point x="165" y="0" type="line"/>
      <point x="165" y="378" type="line" smooth="yes"/>
      <point x="165" y="453"/>
      <point x="235" y="490"/>
      <point x="304" y="490" type="curve" smooth="yes"/>
      <point x="391" y="490"/>
      <point x="436" y="438"/>
      <point x="436" y="338" type="curve" smooth="yes"/>
      <point x="436" y="0" type="line"/>
      <point x="516" y="0" type="line"/>
      <point x="516" y="348" type="line" smooth="yes"/>
      <point x="516" y="482"/>
      <point x="445" y="558"/>
      <point x="330" y="558" type="curve" smooth="yes"/>
      <point x="236" y="558"/>
      <point x="191" y="509"/>
      <point x="170" y="457" type="curve"/>
      <point x="165" y="457" type="line"/>
      <point x="165" y="546" type="line"/>
      <point x="85" y="546" type="line"/>
    </contour>
    <contour>
      <point x="516.0" y="0.0" type="move" name="bottomright"/>
    </contour>
    <contour>
      <point x="303.0" y="558.0" type="move" name="top"/>
    </contour>
    <contour>
      <point x="516.0" y="600.0" type="move" name="topright"/>
    </contour>
  </outline>
</glyph>
<glyph name="boBaimai-thai" format="1">
  <advance width="616"/>
  <unicode hex="0E1A"/>
  <outline>
    <contour>
      <point x="308" y="-12" type="curve" smooth="yes" name="hr00"/>
      <point x="448" y="-12"/>
      <point x="536" y="71"/>
      <point x="536" y="203" type="curve" smooth="yes"/>
      <point x="536" y="546" type="line"/>
      <point x="456" y="546" type="line"/>
      <point x="456" y="211" type="line" smooth="yes"/>
      <point x="456" y="112"/>
      <point x="400" y="57"/>
      <point x="308" y="57" type="curve" smooth="yes"/>
      <point x="216" y="57"/>
      <point x="160" y="112"/>
      <point x="160" y="211" type="curve" smooth="yes"/>
      <point x="160" y="546" type="line"/>
      <point x="80" y="546" type="line"/>
      <point x="80" y="203" type="line" smooth="yes"/>
      <point x="80" y="71"/>
      <point x="168" y="-12"/>
    </contour>
    <contour>
      <point x="536.0" y="0.0" type="move" name="bottomright"/>
    </contour>
    <contour>
      <point x="309.0" y="558.0" type="move" name="top"/>
    </contour>
    <contour>
      <point x="536.0" y="600.0" type="move" name="topright"/>
    </contour>
  </outline>
</glyph>
<glyph name="foFa-thai" format="1">
  <advance width="687"/>
  <unicode hex="0E1D"/>
  <outline>
    <contour>
      <point x="220" y="-12" type="curve" smooth="yes" name="hr00"/>
      <point x="291" y="-12"/>
      <point x="336" y="38"/>
      <point x="343" y="101" type="curve"/>
      <point x="348" y="101" type="line"/>
      <point x="355" y="38"/>
      <point x="400" y="-12"/>
      <point x="476" y="-12" type="curve" smooth="yes"/>
      <point x="557" y="-12"/>
      <point x="607" y="45"/>
      <point x="607" y="134" type="curve" smooth="yes"/>
      <point x="607" y="722" type="line"/>
      <point x="527" y="722" type="line"/>
      <point x="527" y="142" type="line" smooth="yes"/>
      <point x="527" y="87"/>
      <point x="501" y="57"/>
      <point x="458" y="57" type="curve" smooth="yes"/>
      <point x="413" y="57"/>
      <point x="385" y="90"/>
      <point x="385" y="161" type="curve" smooth="yes"/>
      <point x="385" y="255" type="line"/>
      <point x="306" y="255" type="line"/>
      <point x="306" y="161" type="line" smooth="yes"/>
      <point x="306" y="90"/>
      <point x="275" y="57"/>
      <point x="231" y="57" type="curve" smooth="yes"/>
      <point x="162" y="57"/>
      <point x="149" y="122"/>
      <point x="149" y="221" type="curve" smooth="yes"/>
      <point x="149" y="315" type="line" smooth="yes"/>
      <point x="149" y="429"/>
      <point x="191" y="477"/>
      <point x="265" y="477" type="curve" smooth="yes"/>
      <point x="287" y="477" type="line"/>
      <point x="287" y="546" type="line"/>
      <point x="261" y="546" type="line" smooth="yes"/>
      <point x="138" y="546"/>
      <point x="64" y="451"/>
      <point x="64" y="271" type="curve" smooth="yes"/>
      <point x="64" y="90"/>
      <point x="105" y="-12"/>
    </contour>
    <contour>
      <point x="607.0" y="0.0" type="move" name="bottomright"/>
    </contour>
    <contour>
      <point x="319.0" y="558.0" type="move" name="top"/>
    </contour>
    <contour>
      <point x="527.0" y="600.0" type="move" name="topright"/>
    </contour>
  </outline>
</glyph>
<glyph name="soRusi-thai" format="1">
  <advance width="647"/>
  <unicode hex="0E29"/>
  <outline>
    <contour>
      <point x="314" y="-12" type="curve" smooth="yes" name="hr00"/>
      <point x="460" y="-12"/>
      <point x="548" y="71"/>
      <point x="548" y="201" type="curve" smooth="yes"/>
      <point x="548" y="253" type="line"/>
      <point x="621" y="253" type="line"/>
      <point x="621" y="317" type="line"/>
      <point x="548" y="317" type="line"/>
      <point x="548" y="546" type="line"/>
      <point x="468" y="546" type="line"/>
      <point x="468" y="317" type="line"/>
      <point x="354" y="317" type="line"/>
      <point x="354" y="375" type="line"/>
      <point x="274" y="375" type="line"/>
      <point x="274" y="327" type="line" smooth="yes"/>
      <point x="274" y="280"/>
      <point x="301" y="253"/>
      <point x="360" y="253" type="curve" smooth="yes"/>
      <point x="468" y="253" type="line"/>
      <point x="468" y="211" type="line" smooth="yes"/>
      <point x="468" y="115"/>
      <point x="412" y="57"/>
      <point x="314" y="57" type="curve" smooth="yes"/>
      <point x="217" y="57"/>
      <point x="160" y="115"/>
      <point x="160" y="211" type="curve" smooth="yes"/>
      <point x="160" y="546" type="line"/>
      <point x="80" y="546" type="line"/>
      <point x="80" y="201" type="line" smooth="yes"/>
      <point x="80" y="71"/>
      <point x="169" y="-12"/>
    </contour>
    <contour>
      <point x="548.0" y="0.0" type="move" name="bottomright"/>
    </contour>
    <contour>
      <point x="316.0" y="558.0" type="move" name="top"/>
    </contour>
    <contour>
      <point x="548.0" y="600.0" type="move" name="topright"/>
    </contour>
  </outline>
</glyph>
<glyph name="hoNokhuk-thai" format="1">
  <advance width="634"/>
  <unicode hex="0E2E"/>
  <outline>
    <contour>
      <point x="295" y="-12" type="curve" smooth="yes" name="hr00"/>
      <point x="457" y="-12"/>
      <point x="544" y="99"/>
      <point x="544" y="273" type="curve" smooth="yes"/>
      <point x="544" y="373"/>
      <point x="514" y="451"/>
      <point x="460" y="500" type="curve"/>
      <point x="639" y="500" type="line"/>
      <point x="639" y="574" type="line"/>
      <point x="488" y="574" type="line" smooth="yes"/>
      <point x="451" y="574"/>
      <point x="434" y="557"/>
      <point x="432" y="521" type="curve"/>
      <point x="394" y="545"/>
      <point x="346" y="558"/>
      <point x="290" y="558" type="curve" smooth="yes"/>
      <point x="170" y="558"/>
      <point x="93" y="508"/>
      <point x="56" y="443" type="curve"/>
      <point x="108" y="397" type="line"/>
      <point x="143" y="453"/>
      <point x="204" y="489"/>
      <point x="286" y="489" type="curve" smooth="yes"/>
      <point x="393" y="489"/>
      <point x="458" y="423"/>
      <point x="458" y="312" type="curve" smooth="yes"/>
      <point x="458" y="230" type="line" smooth="yes"/>
      <point x="458" y="120"/>
      <point x="399" y="55"/>
      <point x="299" y="55" type="curve" smooth="yes"/>
      <point x="210" y="55"/>
      <point x="146" y="97"/>
      <point x="146" y="191" type="curve" smooth="yes"/>
      <point x="146" y="232" type="line"/>
      <point x="234" y="232" type="line"/>
      <point x="234" y="301" type="line"/>
      <point x="128" y="301" type="line" smooth="yes"/>
      <point x="76" y="301"/>
      <point x="65" y="278"/>
      <point x="65" y="238" type="curve" smooth="yes"/>
      <point x="65" y="187" type="line" smooth="yes"/>
      <point x="65" y="67"/>
      <point x="166" y="-12"/>
    </contour>
    <contour>
      <point x="507.0" y="0.0" type="move" name="bottomright"/>
    </contour>
    <contour>
      <point x="293.0" y="558.0" type="move" name="top"/>
    </contour>
    <contour>
      <point x="507.0" y="600.0" type="move" name="topright"/>
    </contour>
  </outline>
</glyph>
<glyph name="phinthu-thai" format="1">
  <advance width="0"/>
  <unicode hex="0E3A"/>
  <outline>
    <contour>
      <point x="-42" y="-206" type="curve" smooth="yes" name="hr00"/>
      <point x="-6" y="-206"/>
      <point x="10" y="-187"/>
      <point x="10" y="-160" type="curve" smooth="yes"/>
      <point x="10" y="-148" type="line" smooth="yes"/>
      <point x="10" y="-121"/>
      <point x="-6" y="-102"/>
      <point x="-42" y="-102" type="curve" smooth="yes"/>
      <point x="-78" y="-102"/>
      <point x="-94" y="-121"/>
      <point x="-94" y="-148" type="curve" smooth="yes"/>
      <point x="-94" y="-160" type="line" smooth="yes"/>
      <point x="-94" y="-187"/>
      <point x="-78" y="-206"/>
    </contour>
    <contour>
      <point x="0.0" y="0.0" type="move" name="_bottomright"/>
    </contour>
    <contour>
      <point x="0.0" y="-208.0" type="move" name="bottomright"/>
    </contour>
  </outline>
</glyph>
<glyph name="saraAiMaimalai-thai" format="1">
  <advance width="316"/>
  <unicode hex="0E44"/>
  <outline>
    <contour>
      <point x="202" y="0" type="curve" smooth="yes" name="hr00"/>
      <point x="280" y="0" type="line"/>
      <point x="280" y="70" type="line"/>
      <point x="196" y="70" type="line"/>
      <point x="196" y="696" type="line" smooth="yes"/>
      <point x="196" y="761"/>
      <point x="231" y="799"/>
      <point x="294" y="799" type="curve" smooth="yes"/>
      <point x="304" y="799" type="line"/>
      <point x="304" y="865" type="line"/>
      <point x="-7" y="865" type="line"/>
      <point x="-7" y="799" type="line"/>
      <point x="211" y="799" type="line"/>
      <point x="211" y="795" type="line"/>
      <point x="161" y="777"/>
      <point x="116" y="736"/>
      <point x="116" y="651" type="curve" smooth="yes"/>
      <point x="116" y="84" type="line" smooth="yes"/>
      <point x="116" y="33"/>
      <point x="145" y="0"/>
    </contour>
  </outline>
</glyph>
<glyph name="maiTri-thai" format="1">
  <advance width="0"/>
  <unicode hex="0E4A"/>
  <outline>
    <contour>
      <point x="-336" y="662" type="line" name="hr00"/>
      <point x="-268" y="662" type="line"/>
      <point x="-268" y="740" type="line" smooth="yes"/>
      <point x="-268" y="764"/>
      <point x="-256" y="779"/>
      <point x="-233" y="779" type="curve" smooth="yes"/>
      <point x="-211" y="779"/>
      <point x="-197" y="767"/>
      <point x="-197" y="735" type="curve" smooth="yes"/>
      <point x="-197" y="716" type="line"/>
      <point x="-144" y="716" type="line"/>
      <point x="-144" y="735" type="line" smooth="yes"/>
      <point x="-144" y="767"/>
      <point x="-131" y="779"/>
      <point x="-109" y="779" type="curve" smooth="yes"/>
      <point x="-86" y="779"/>
      <point x="-74" y="764"/>
      <point x="-74" y="740" type="curve" smooth="yes"/>
      <point x="-74" y="662" type="line"/>
      <point x="73" y="662" type="line"/>
      <point x="73" y="722" type="line"/>
      <point x="-6" y="722" type="line"/>
      <point x="-6" y="748" type="line" smooth="yes"/>
      <point x="-6" y="803"/>
      <point x="-36" y="837"/>
      <point x="-90" y="837" type="curve" smooth="yes"/>
      <point x="-129" y="837"/>
      <point x="-161" y="814"/>
      <point x="-168" y="775" type="curve"/>
      <point x="-174" y="775" type="line"/>
      <point x="-181" y="814"/>
      <point x="-213" y="837"/>
      <point x="-252" y="837" type="curve" smooth="yes"/>
      <point x="-306" y="837"/>
      <point x="-336" y="803"/>
      <point x="-336" y="748" type="curve" smooth="yes"/>
    </contour>
    <contour>
      <point x="0.0" y="600.0" type="move" name="_topright"/>
    </contour>
    <contour>
      <point x="0.0" y="800.0" type="move" name="topright"/>
    </contour>
  </outline>
</glyph>
<glyph name="thanthakhat-thai" format="1">
  <advance width="0"/>
  <unicode hex="0E4C"/>
  <outline>
    <contour>
      <point x="-160" y="653" type="line" name="hr00"/>
      <point x="-80" y="653" type="line"/>
      <point x="-80" y="727" type="line"/>
      <point x="125" y="727" type="line"/>
      <point x="125" y="795" type="line"/>
      <point x="-73" y="795" type="line" smooth="yes"/>
      <point x="-133" y="795"/>
      <point x="-160" y="764"/>
      <point x="-160" y="716" type="curve" smooth="yes"/>
    </contour>
    <contour>
      <point x="0.0" y="600.0" type="move" name="_topright"/>
    </contour>
  </outline>
</glyph>
<glyph name="yamakkan-thai" format="1">
  <advance width="0"/>
  <unicode hex="0E4E"/>
  <outline>
    <contour>
      <point x="-47" y="643" type="curve" smooth="yes" name="hr00"/>
      <point x="0" y="643" type="line"/>
      <point x="0" y="695" type="line"/>
      <point x="-28" y="695" type="line" smooth="yes"/>
      <point x="-64" y="695"/>
      <point x="-80" y="707"/>
      <point x="-80" y="728" type="curve" smooth="yes"/>
      <point x="-80" y="752"/>
      <point x="-63" y="767"/>
      <point x="-27" y="767" type="curve" smooth="yes"/>
      <point x="18" y="767" type="line"/>
      <point x="18" y="816" type="line"/>
      <point x="-3" y="816" type="line" smooth="yes"/>
      <point x="-32" y="816"/>
      <point x="-51" y="828"/>
      <point x="-51" y="852" type="curve" smooth="yes"/>
      <point x="-51" y="871"/>
      <point x="-35" y="884"/>
      <point x="-7" y="884" type="curve" smooth="yes"/>
      <point x="8" y="884"/>
      <point x="27" y="879"/>
      <point x="39" y="871" type="curve"/>
      <point x="57" y="920" type="line"/>
      <point x="40" y="930"/>
      <point x="17" y="937"/>
      <point x="-14" y="937" type="curve" smooth="yes"/>
      <point x="-76" y="937"/>
      <point x="-111" y="905"/>
      <point x="-111" y="862" type="curve" smooth="yes"/>
      <point x="-111" y="833"/>
      <point x="-94" y="809"/>
      <point x="-52" y="798" type="curve"/>
      <point x="-52" y="795" type="line"/>
      <point x="-115" y="791"/>
      <point x="-142" y="757"/>
      <point x="-142" y="720" type="curve" smooth="yes"/>
      <point x="-142" y="671"/>
      <point x="-108" y="643"/>
    </contour>
    <contour>
      <point x="0.0" y="600.0" type="move" name="_topright"/>
    </contour>
  </outline>
</glyph>
<glyph name="two-thai" format="1">
  <advance width="758"/>
  <unicode hex="0E52"/>
  <outline>
    <contour>
      <point x="382" y="-12" type="curve" smooth="yes" name="hr00"/>
      <point x="653" y="-12"/>
      <point x="683" y="108"/>
      <point x="683" y="201" type="curve" smooth="yes"/>
      <point x="683" y="372" type="line" smooth="yes"/>
      <point x="683" y="450"/>
      <point x="648" y="508"/>
      <point x="574" y="508" type="curve" smooth="yes"/>
      <point x="524" y="508"/>
      <point x="489" y="481"/>
      <point x="477" y="427" type="curve"/>
      <point x="471" y="427" type="line"/>
      <point x="460" y="481"/>
      <point x="423" y="508"/>
      <point x="374" y="508" type="curve" smooth="yes"/>
      <point x="297" y="508"/>
      <point x="262" y="443"/>
      <point x="262" y="350" type="curve" smooth="yes"/>
      <point x="262" y="250"/>
      <point x="302" y="188"/>
      <point x="394" y="188" type="curve" smooth="yes"/>
      <point x="410" y="188"/>
      <point x="428" y="190"/>
      <point x="448" y="193" type="curve"/>
      <point x="440" y="251" type="line"/>
      <point x="427" y="249"/>
      <point x="419" y="249"/>
      <point x="410" y="249" type="curve" smooth="yes"/>
      <point x="360" y="249"/>
      <point x="343" y="281"/>
      <point x="343" y="323" type="curve" smooth="yes"/>
      <point x="343" y="366" type="line" smooth="yes"/>
      <point x="343" y="407"/>
      <point x="356" y="439"/>
      <point x="391" y="439" type="curve" smooth="yes"/>
      <point x="432" y="439"/>
      <point x="442" y="397"/>
      <point x="446" y="356" type="curve"/>
      <point x="499" y="356" type="line"/>
      <point x="502" y="394"/>
      <point x="514" y="439"/>
      <point x="557" y="439" type="curve" smooth="yes"/>
      <point x="596" y="439"/>
      <point x="603" y="403"/>
      <point x="603" y="366" type="curve" smooth="yes"/>
      <point x="603" y="206" type="line" smooth="yes"/>
      <point x="603" y="158"/>
      <point x="591" y="122"/>
      <point x="564" y="97" type="curve" smooth="yes"/>
      <point x="537" y="72"/>
      <point x="495" y="58"/>
      <point x="415" y="58" type="curve" smooth="yes"/>
      <point x="348" y="58" type="line" smooth="yes"/>
      <point x="268" y="58"/>
      <point x="226" y="72"/>
      <point x="199" y="97" type="curve" smooth="yes"/>
      <point x="172" y="122"/>
      <point x="160" y="158"/>
      <point x="160" y="206" type="curve" smooth="yes"/>
      <point x="160" y="593" type="line"/>
      <point x="80" y="593" type="line"/>
      <point x="80" y="201" type="line" smooth="yes"/>
      <point x="80" y="107"/>
      <point x="112" y="-12"/>
    </contour>
  </outline>
</glyph>
<glyph name="sixsuperior" format="1">
  <advance width="359"/>
  <unicode hex="2076"/>
  <outline>
    <contour>
      <point x="181" y="323" type="curve" smooth="yes" name="hr00"/>
      <point x="266" y="323"/>
      <point x="322" y="374"/>
      <point x="322" y="448" type="curve" smooth="yes"/>
      <point x="322" y="518"/>
      <point x="271" y="562"/>
      <point x="203" y="562" type="curve" smooth="yes"/>
      <point x="153" y="562"/>
      <point x="126" y="537"/>
      <point x="109" y="509" type="curve"/>
      <point x="105" y="510" type="line"/>
      <point x="124" y="589"/>
      <point x="176" y="637"/>
      <point x="268" y="698" type="curve"/>
      <point x="184" y="698" type="line"/>
      <point x="118" y="657"/>
      <point x="40" y="573"/>
      <point x="40" y="467" type="curve" smooth="yes"/>
      <point x="40" y="378"/>
      <point x="92" y="323"/>
    </contour>
    <contour>
      <point x="181" y="371" type="curve" smooth="yes"/>
      <point x="135" y="371"/>
      <point x="105" y="394"/>
      <point x="105" y="440" type="curve" smooth="yes"/>
      <point x="105" y="445" type="line" smooth="yes"/>
      <point x="105" y="491"/>
      <point x="135" y="514"/>
      <point x="181" y="514" type="curve" smooth="yes"/>
      <point x="227" y="514"/>
      <point x="257" y="491"/>
      <point x="257" y="445" type="curve" smooth="yes"/>
      <point x="257" y="440" type="line" smooth="yes"/>
      <point x="257" y="394"/>
      <point x="227" y="371"/>
    </contour>
  </outline>
</glyph>
<glyph name="hryvnia" format="1">
  <advance width="628"/>
  <unicode hex="20B4"/>
  <outline>
    <contour>
      <point x="316" y="-12" type="curve" smooth="yes" name="hr00"/>
      <point x="401" y="-12"/>
      <point x="477" y="22"/>
      <point x="530" y="85" type="curve"/>
      <point x="479" y="140" type="line"/>
      <point x="425" y="83"/>
      <point x="376" y="62"/>
      <point x="321" y="62" type="curve" smooth="yes"/>
      <point x="241" y="62"/>
      <point x="190" y="103"/>
      <point x="190" y="182" type="curve" smooth="yes"/>
      <point x="190" y="208"/>
      <point x="196" y="229"/>
      <point x="206" y="248" type="curve"/>
      <point x="582" y="248" type="line"/>
      <point x="582" y="315" type="line"/>
      <point x="290" y="315" type="line"/>
      <point x="456" y="411" type="line"/>
      <point x="582" y="411" type="line"/>
      <point x="582" y="478" type="line"/>
      <point x="504" y="478" type="line"/>
      <point x="510" y="494"/>
      <point x="513" y="514"/>
      <point x="513" y="536" type="curve" smooth="yes"/>
      <point x="513" y="644"/>
      <point x="431" y="710"/>
      <point x="314" y="710" type="curve" smooth="yes"/>
      <point x="241" y="710"/>
      <point x="170" y="685"/>
      <point x="115" y="624" type="curve"/>
      <point x="168" y="571" type="line"/>
      <point x="208" y="618"/>
      <point x="255" y="636"/>
      <point x="307" y="636" type="curve" smooth="yes"/>
      <point x="384" y="636"/>
      <point x="430" y="601"/>
      <point x="430" y="529" type="curve" smooth="yes"/>
      <point x="430" y="510"/>
      <point x="427" y="493"/>
      <point x="421" y="478" type="curve"/>
      <point x="46" y="478" type="line"/>
      <point x="46" y="411" type="line"/>
      <point x="337" y="411" type="line"/>
      <point x="171" y="315" type="line"/>
      <point x="46" y="315" type="line"/>
      <point x="46" y="248" type="line"/>
      <point x="120" y="248" type="line"/>
      <point x="113" y="228"/>
      <point x="107" y="205"/>
      <point x="107" y="176" type="curve" smooth="yes"/>
      <point x="107" y="65"/>
      <point x="189" y="-12"/>
    </contour>
  </outline>
</glyph>
<glyph name="arrowhookleft" format="1">
  <advance width="820"/>
  <unicode hex="21A9"/>
  <outline>
    <contour>
      <point x="55" y="284" type="line" name="hr00"/>
      <point x="262" y="77" type="line"/>
      <point x="311" y="125" type="line"/>
      <point x="224" y="211" type="line"/>
      <point x="174" y="253" type="line"/>
      <point x="175" y="256" type="line"/>
      <point x="272" y="250" type="line"/>
      <point x="559" y="250" type="line" smooth="yes"/>
      <point x="670" y="250"/>
      <point x="765" y="312"/>
      <point x="765" y="436" type="curve" smooth="yes"/>
      <point x="765" y="560"/>
      <point x="670" y="622"/>
      <point x="559" y="622" type="curve"/>
      <point x="559" y="554" type="line"/>
      <point x="628" y="554"/>
      <point x="691" y="519"/>
      <point x="691" y="436" type="curve" smooth="yes"/>
      <point x="691" y="353"/>
      <point x="628" y="318"/>
      <point x="559" y="318" type="curve" smooth="yes"/>
      <point x="272" y="318" type="line"/>
      <point x="175" y="312" type="line"/>
      <point x="174" y="315" type="line"/>
      <point x="224" y="357" type="line"/>
      <point x="311" y="443" type="line"/>
      <point x="262" y="491" type="line"/>
    </contour>
  </outline>
</glyph>
<glyph name="summation" format="1">
  <advance width="504"/>
  <unicode hex="2211"/>
  <outline>
    <contour>
      <point x="468" y="-126" type="line" name="hr00"/>
      <point x="109" y="-126" type="line"/>
      <point x="353" y="222" type="line"/>
      <point x="353" y="276" type="line"/>
      <point x="109" y="624" type="line"/>
      <point x="468" y="624" type="line"/>
      <point x="468" y="698" type="line"/>
      <point x="18" y="698" type="line"/>
      <point x="18" y="623" type="line"/>
      <point x="279" y="251" type="line"/>
      <point x="279" y="247" type="line"/>
      <point x="18" y="-125" type="line"/>
      <point x="18" y="-200" type="line"/>
      <point x="468" y="-200" type="line"/>
    </contour>
  </outline>
</glyph>
<glyph name="reversedKhomut-thai" format="1">
  <advance width="1410"/>
  <unicode hex="EC00"/>
  <outline>
    <contour>
      <point x="1096" y="-12" type="curve" smooth="yes" name="hr00"/>
      <point x="1255" y="-12"/>
      <point x="1351" y="85"/>
      <point x="1351" y="273" type="curve" smooth="yes"/>
      <point x="1351" y="460"/>
      <point x="1257" y="558"/>
      <point x="1110" y="558" type="curve" smooth="yes"/>
      <point x="1026" y="558"/>
      <point x="969" y="531"/>
      <point x="937" y="493" type="curve"/>
      <point x="981" y="439" type="line"/>
      <point x="1009" y="467"/>
      <point x="1046" y="489"/>
      <point x="1106" y="489" type="curve" smooth="yes"/>
      <point x="1198" y="489"/>
      <point x="1265" y="427"/>
      <point x="1265" y="312" type="curve" smooth="yes"/>
      <point x="1265" y="235" type="line" smooth="yes"/>
      <point x="1265" y="119"/>
      <point x="1199" y="57"/>
      <point x="1093" y="57" type="curve" smooth="yes"/>
      <point x="941" y="57"/>
      <point x="853" y="173"/>
      <point x="822" y="490" type="curve"/>
      <point x="738" y="490" type="line"/>
      <point x="639" y="180" type="line"/>
      <point x="637" y="180" type="line"/>
      <point x="552" y="450" type="line"/>
      <point x="485" y="450" type="line"/>
      <point x="410" y="212" type="line"/>
      <point x="408" y="212" type="line"/>
      <point x="340" y="425" type="line"/>
      <point x="274" y="425" type="line"/>
      <point x="251" y="327"/>
      <point x="217" y="273"/>
      <point x="125" y="273" type="curve" smooth="yes"/>
      <point x="59" y="273" type="line"/>
      <point x="59" y="204" type="line"/>
      <point x="127" y="204" type="line" smooth="yes"/>
      <point x="218" y="204"/>
      <point x="265" y="240"/>
      <point x="303" y="334" type="curve"/>
      <point x="305" y="334" type="line"/>
      <point x="377" y="107" type="line"/>
      <point x="443" y="107" type="line"/>
      <point x="519" y="344" type="line"/>
      <point x="521" y="344" type="line"/>
      <point x="606" y="75" type="line"/>
      <point x="673" y="75" type="line"/>
      <point x="770" y="384" type="line"/>
      <point x="772" y="384" type="line"/>
      <point x="813" y="101"/>
      <point x="930" y="-12"/>
    </contour>
  </outline>
</glyph>
<glyph name="paiyannoi_wisanchani-thai" format="1">
  <advance width="532"/>
  <unicode hex="EC02"/>
  <outline>
    <contour>
      <point x="354" y="0" type="line" name="hr00"/>
      <point x="434" y="0" type="line"/>
      <point x="434" y="180" type="line"/>
      <point x="506" y="180" type="line"/>
      <point x="506" y="245" type="line"/>
      <point x="434" y="245" type="line"/>
      <point x="434" y="546" type="line"/>
      <point x="354" y="546" type="line"/>
      <point x="354" y="514" type="line" smooth="yes"/>
      <point x="354" y="464"/>
      <point x="309" y="433"/>
      <point x="241" y="433" type="curve" smooth="yes"/>
      <point x="218" y="433" type="line" smooth="yes"/>
      <point x="161" y="433"/>
      <point x="121" y="454"/>
      <point x="121" y="508" type="curve" smooth="yes"/>
      <point x="121" y="546" type="line"/>
      <point x="41" y="546" type="line"/>
      <point x="41" y="498" type="line" smooth="yes"/>
      <point x="41" y="407"/>
      <point x="114" y="365"/>
      <point x="199" y="365" type="curve" smooth="yes"/>
      <point x="283" y="365"/>
      <point x="327" y="402"/>
      <point x="350" y="451" type="curve"/>
      <point x="354" y="451" type="line"/>
      <point x="354" y="245" type="line"/>
      <point x="243" y="245" type="line"/>
      <point x="243" y="300" type="line"/>
      <point x="163" y="300" type="line"/>
      <point x="163" y="255" type="line" smooth="yes"/>
      <point x="163" y="208"/>
      <point x="189" y="180"/>
      <point x="249" y="180" type="curve" smooth="yes"/>
      <point x="354" y="180" type="line"/>
    </contour>
  </outline>
</glyph>
<glyph name="tripleWisanchani-thai" format="1">
  <advance width="647"/>
  <unicode hex="EC04"/>
  <outline>
    <contour>
      <point x="171" y="100" type="curve" name="hr00"/>
      <point x="309" y="100" type="line"/>
      <point x="309" y="169" type="line"/>
      <point x="164" y="169" type="line"/>
      <point x="164" y="223" type="line"/>
      <point x="84" y="223" type="line"/>
      <point x="84" y="180" type="line" smooth="yes"/>
      <point x="84" y="132"/>
      <point x="111" y="100"/>
    </contour>
    <contour>
      <point x="171" y="357" type="curve"/>
      <point x="309" y="357" type="line"/>
      <point x="309" y="426" type="line"/>
      <point x="164" y="426" type="line"/>
      <point x="164" y="480" type="line"/>
      <point x="84" y="480" type="line"/>
      <point x="84" y="437" type="line" smooth="yes"/>
      <point x="84" y="389"/>
      <point x="111" y="357"/>
    </contour>
    <contour>
      <point x="429" y="201" type="curve"/>
      <point x="567" y="201" type="line"/>
      <point x="567" y="270" type="line"/>
      <point x="422" y="270" type="line"/>
      <point x="422" y="324" type="line"/>
      <point x="342" y="324" type="line"/>
      <point x="342" y="281" type="line" smooth="yes"/>
      <point x="342" y="233"/>
      <point x="369" y="201"/>
    </contour>
  </outline>
</glyph>
<glyph name="danda-thai" format="1">
  <advance width="250"/>
  <unicode hex="EC11"/>
  <outline>
    <contour>
      <point x="85" y="0" type="line" name="hr00"/>
      <point x="165" y="0" type="line"/>
      <point x="165" y="546" type="line"/>
      <point x="85" y="546" type="line"/>
    </contour>
  </outline>
</glyph>
<glyph name="loChula-thai.short" format="1">
  <advance width="648"/>
  <outline>
    <contour>
      <point x="85" y="0" type="line" name="hr00"/>
      <point x="163" y="0" type="line"/>
      <point x="324" y="190" type="line"/>
      <point x="484" y="0" type="line"/>
      <point x="562" y="0" type="line"/>
      <point x="562" y="299" type="line" smooth="yes"/>
      <point x="562" y="356"/>
      <point x="540" y="391"/>
      <point x="489" y="406" type="curve"/>
      <point x="489" y="411" type="line"/>
      <point x="545" y="421"/>
      <point x="573" y="452"/>
      <point x="573" y="504" type="curve" smooth="yes"/>
      <point x="573" y="564" type="line"/>
      <point x="493" y="564" type="line"/>
      <point x="493" y="495" type="line" smooth="yes"/>
      <point x="493" y="446"/>
      <point x="468" y="432"/>
      <point x="428" y="432" type="curve" smooth="yes"/>
      <point x="369" y="432" type="line"/>
      <point x="369" y="370" type="line"/>
      <point x="417" y="370" type="line" smooth="yes"/>
      <point x="465" y="370"/>
      <point x="482" y="349"/>
      <point x="482" y="307" type="curve" smooth="yes"/>
      <point x="482" y="249" type="line"/>
      <point x="486" y="98" type="line"/>
      <point x="482" y="98" type="line"/>
      <point x="343" y="263" type="line"/>
      <point x="305" y="263" type="line"/>
      <point x="165" y="98" type="line"/>
      <point x="161" y="98" type="line"/>
      <point x="165" y="273" type="line"/>
      <point x="165" y="546" type="line"/>
      <point x="85" y="546" type="line"/>
    </contour>
    <contour>
      <point x="562.0" y="0.0" type="move" name="bottomright"/>
    </contour>
    <contour>
      <point x="330.0" y="558.0" type="move" name="top"/>
    </contour>
    <contour>
      <point x="562.0" y="600.0" type="move" name="topright"/>
    </contour>
  </outline>
</glyph>
<glyph name="lu_lakkhangyao-thai" format="1">
  <advance width="924"/>
  <outline>
    <contour>
      <point x="446" y="-180" type="line" name="hr00"/>
      <point x="526" y="-180" type="line"/>
      <point x="526" y="341" type="line" smooth="yes"/>
      <point x="526" y="368"/>
      <point x="523" y="392"/>
      <point x="516" y="415" type="curve"/>
      <point x="544" y="461"/>
      <point x="583" y="490"/>
      <point x="645" y="490" type="curve" smooth="yes"/>
      <point x="725" y="490"/>
      <point x="764" y="450"/>
      <point x="764" y="375" type="curve" smooth="yes"/>
      <point x="764" y="-180" type="line"/>
      <point x="844" y="-180" type="line"/>
      <point x="844" y="382" type="line" smooth="yes"/>
      <point x="844" y="493"/>
      <point x="774" y="558"/>
      <point x="650" y="558" type="curve" smooth="yes"/>
      <point x="569" y="558"/>
      <point x="515" y="526"/>
      <point x="482" y="481" type="curve"/>
      <point x="443" y="530"/>
      <point x="378" y="558"/>
      <point x="292" y="558" type="curve" smooth="yes"/>
      <point x="161" y="558"/>
      <point x="62" y="470"/>
      <point x="53" y="348" type="curve"/>
      <point x="139" y="312" type="line"/>
      <point x="139" y="70" type="line"/>
      <point x="75" y="70" type="line"/>
      <point x="75" y="0" type="line"/>
      <point x="134" y="0" type="line" smooth="yes"/>
      <point x="190" y="0"/>
      <point x="219" y="33"/>
      <point x="219" y="84" type="curve" smooth="yes"/>
      <point x="219" y="309" type="line" smooth="yes"/>
      <point x="219" y="338"/>
      <point x="207" y="352"/>
      <point x="178" y="364" type="curve" smooth="yes"/>
      <point x="128" y="384" type="line"/>
      <point x="146" y="449"/>
      <point x="214" y="489"/>
      <point x="294" y="489" type="curve" smooth="yes"/>
      <point x="385" y="489"/>
      <point x="446" y="434"/>
      <point x="446" y="331" type="curve" smooth="yes"/>
    </contour>
    <contour>
      <point x="480.0" y="558.0" type="move" name="top"/>
    </contour>
  </outline>
</glyph>
<glyph name="maiEk-thai.small" format="1">
  <advance width="0"/>
  <outline>
    <contour>
      <point x="-74" y="858" type="line" name="hr00"/>
      <point x="0" y="858" type="line"/>
      <point x="0" y="1007" type="line"/>
      <point x="-74" y="1007" type="line"/>
    </contour>
    <contour>
      <point x="0.0" y="800.0" type="move" name="_topright"/>
    </contour>
  </outline>
</glyph>
<glyph name="maiTho-thai.small" format="1">
  <advance width="0"/>
  <outline>
    <contour>
      <point x="-156" y="858" type="line" name="hr00"/>
      <point x="105" y="858" type="line"/>
      <point x="105" y="910" type="line"/>
      <point x="-50" y="910" type="line"/>
      <point x="-50" y="914" type="line"/>
      <point x="-28" y="924"/>
      <point x="-17" y="953"/>
      <point x="-17" y="975" type="curve" smooth="yes"/>
      <point x="-17" y="1015"/>
      <point x="-45" y="1043"/>
      <point x="-107" y="1043" type="curve" smooth="yes"/>
      <point x="-156" y="1043" type="line"/>
      <point x="-156" y="992" type="line"/>
      <point x="-134" y="992" type="line" smooth="yes"/>
      <point x="-97" y="992"/>
      <point x="-81" y="978"/>
      <point x="-81" y="946" type="curve" smooth="yes"/>
      <point x="-81" y="910" type="line"/>
      <point x="-156" y="910" type="line"/>
    </contour>
    <contour>
      <point x="0.0" y="800.0" type="move" name="_topright"/>
    </contour>
  </outline>
</glyph>
<glyph name="moMa-thai_macronbelowcomb" format="1">
  <advance width="596"/>
  <outline>
    <contour>
      <point x="328" y="-12" type="curve" smooth="yes" name="hr00"/>
      <point x="444" y="-12"/>
      <point x="516" y="64"/>
      <point x="516" y="198" type="curve" smooth="yes"/>
      <point x="516" y="546" type="line"/>
      <point x="436" y="546" type="line"/>
      <point x="436" y="208" type="line" smooth="yes"/>
      <point x="436" y="109"/>
      <point x="391" y="56"/>
      <point x="303" y="56" type="curve" smooth="yes"/>
      <point x="235" y="56"/>
      <point x="165" y="93"/>
      <point x="165" y="168" type="curve" smooth="yes"/>
      <point x="165" y="546" type="line"/>
      <point x="85" y="546" type="line"/>
      <point x="85" y="0" type="line"/>
      <point x="165" y="0" type="line"/>
      <point x="165" y="89" type="line"/>
      <point x="170" y="89" type="line"/>
      <point x="191" y="37"/>
      <point x="236" y="-12"/>
    </contour>
    <contour>
      <point x="85" y="-177" type="line"/>
      <point x="516" y="-177" type="line"/>
      <point x="516" y="-113" type="line"/>
      <point x="85" y="-113" type="line"/>
    </contour>
    <contour>
      <point x="516.0" y="-140.0" type="move" name="bottomright"/>
    </contour>
    <contour>
      <point x="303.0" y="558.0" type="move" name="top"/>
    </contour>
    <contour>
      <point x="516.0" y="600.0" type="move" name="topright"/>
    </contour>
  </outline>
</glyph>
<glyph name="nikhahit-thai.narrow" format="1">
  <advance width="0"/>
  <outline>
    <contour>
      <point x="-150" y="670" type="curve" smooth="yes" name="hr00"/>
      <point x="-181" y="670"/>
      <point x="-199" y="688"/>
      <point x="-199" y="714" type="curve" smooth="yes"/>
      <point x="-199" y="734" type="line" smooth="yes"/>
      <point x="-199" y="760"/>
      <point x="-181" y="778"/>
      <point x="-150" y="778" type="curve" smooth="yes"/>
      <point x="-119" y="778"/>
      <point x="-101" y="760"/>
      <point x="-101" y="734" type="curve" smooth="yes"/>
      <point x="-101" y="714" type="line" smooth="yes"/>
      <point x="-101" y="688"/>
      <point x="-119" y="670"/>
    </contour>
    <contour>
      <point x="-150" y="617" type="curve" smooth="yes"/>
      <point x="-82" y="617"/>
      <point x="-39" y="659"/>
      <point x="-39" y="724" type="curve" smooth="yes"/>
      <point x="-39" y="789"/>
      <point x="-82" y="831"/>
      <point x="-150" y="831" type="curve" smooth="yes"/>
      <point x="-218" y="831"/>
      <point x="-261" y="789"/>
      <point x="-261" y="724" type="curve" smooth="yes"/>
      <point x="-261" y="659"/>
      <point x="-218" y="617"/>
    </contour>
    <contour>
      <point x="0.0" y="600.0" type="move" name="_topright"/>
    </contour>
    <contour>
      <point x="-111.0" y="840.0" type="move" name="topright"/>
    </contour>
  </outline>
</glyph>
<glyph name="nikhahit-thai.small" format="1">
  <advance width="0"/>
  <outline>
    <contour>
      <point x="-39" y="902" type="curve" smooth="yes" name="hr00"/>
      <point x="-67" y="902"/>
      <point x="-83" y="918"/>
      <point x="-83" y="941" type="curve" smooth="yes"/>
      <point x="-83" y="961" type="line" smooth="yes"/>
      <point x="-83" y="984"/>
      <point x="-67" y="1000"/>
      <point x="-39" y="1000" type="curve" smooth="yes"/>
      <point x="-11" y="1000"/>
      <point x="5" y="984"/>
      <point x="5" y="961" type="curve" smooth="yes"/>
      <point x="5" y="941" type="line" smooth="yes"/>
      <point x="5" y="918"/>
      <point x="-11" y="902"/>
    </contour>
    <contour>
      <point x="-39" y="851" type="curve" smooth="yes"/>
      <point x="25" y="851"/>
      <point x="65" y="890"/>
      <point x="65" y="951" type="curve" smooth="yes"/>
      <point x="65" y="1012"/>
      <point x="25" y="1051"/>
      <point x="-39" y="1051" type="curve" smooth="yes"/>
      <point x="-103" y="1051"/>
      <point x="-143" y="1012"/>
      <point x="-143" y="951" type="curve" smooth="yes"/>
      <point x="-143" y="890"/>
      <point x="-103" y="851"/>
    </contour>
    <contour>
      <point x="0.0" y="800.0" type="move" name="_topright"/>
    </contour>
    <contour>
      <point x="0.0" y="1073.0" type="move" name="topright"/>
    </contour>
  </outline>
</glyph>
<glyph name="three-thai.sups" format="1">
  <advance width="530"/>
  <outline>
    <contour>
      <point x="204" y="334" type="curve" smooth="yes" name="hr00"/>
      <point x="219" y="334"/>
      <point x="243" y="336"/>
      <point x="257" y="340" type="curve"/>
      <point x="248" y="400" type="line"/>
      <point x="235" y="396"/>
      <point x="225" y="395"/>
      <point x="215" y="395" type="curve" smooth="yes"/>
      <point x="145" y="395"/>
      <point x="117" y="445"/>
      <point x="117" y="509" type="curve" smooth="yes"/>
      <point x="117" y="556" type="line" smooth="yes"/>
      <point x="117" y="613"/>
      <point x="138" y="650"/>
      <point x="178" y="650" type="curve" smooth="yes"/>
      <point x="217" y="650"/>
      <point x="226" y="621"/>
      <point x="226" y="589" type="curve" smooth="yes"/>
      <point x="226" y="474" type="line"/>
      <point x="295" y="474" type="line"/>
      <point x="295" y="589" type="line" smooth="yes"/>
      <point x="295" y="624"/>
      <point x="312" y="650"/>
      <point x="351" y="650" type="curve" smooth="yes"/>
      <point x="389" y="650"/>
      <point x="404" y="620"/>
      <point x="404" y="581" type="curve" smooth="yes"/>
      <point x="404" y="343" type="line"/>
      <point x="477" y="343" type="line"/>
      <point x="477" y="587" type="line" smooth="yes"/>
      <point x="477" y="662"/>
      <point x="439" y="710"/>
      <point x="363" y="710" type="curve" smooth="yes"/>
      <point x="298" y="710"/>
      <point x="272" y="675"/>
      <point x="264" y="648" type="curve"/>
      <point x="260" y="648" type="line"/>
      <point x="254" y="674"/>
      <point x="228" y="710"/>
      <point x="171" y="710" type="curve" smooth="yes"/>
      <point x="86" y="710"/>
      <point x="41" y="647"/>
      <point x="41" y="534" type="curve" smooth="yes"/>
      <point x="41" y="409"/>
      <point x="99" y="334"/>
    </contour>
  </outline>
</glyph>
<glyph name="toPatak-thai.short" format="1">
  <advance width="609"/>
  <outline>
    <contour>
      <point x="140" y="-122" type="line" name="hr00"/>
      <point x="188" y="-122" type="line" smooth="yes"/>
      <point x="238" y="-122"/>
      <point x="281" y="-101"/>
      <point x="294" y="-41" type="curve"/>
      <point x="299" y="-41" type="line"/>
      <point x="313" y="-101"/>
      <point x="363" y="-122"/>
      <point x="407" y="-122" type="curve" smooth="yes"/>
      <point x="483" y="-122"/>
      <point x="529" y="-72"/>
      <point x="529" y="12" type="curve" smooth="yes"/>
      <point x="529" y="341" type="line" smooth="yes"/>
      <point x="529" y="474"/>
      <point x="445" y="558"/>
      <point x="293" y="558" type="curve" smooth="yes"/>
      <point x="161" y="558"/>
      <point x="61" y="470"/>
      <point x="53" y="348" type="curve"/>
      <point x="139" y="312" type="line"/>
      <point x="139" y="70" type="line"/>
      <point x="75" y="70" type="line"/>
      <point x="75" y="0" type="line"/>
      <point x="134" y="0" type="line" smooth="yes"/>
      <point x="190" y="0"/>
      <point x="219" y="33"/>
      <point x="219" y="84" type="curve" smooth="yes"/>
      <point x="219" y="309" type="line" smooth="yes"/>
      <point x="219" y="338"/>
      <point x="207" y="352"/>
      <point x="178" y="364" type="curve" smooth="yes"/>
      <point x="128" y="384" type="line"/>
      <point x="146" y="449"/>
      <point x="214" y="489"/>
      <point x="295" y="489" type="curve" smooth="yes"/>
      <point x="387" y="489"/>
      <point x="449" y="434"/>
      <point x="449" y="331" type="curve" smooth="yes"/>
      <point x="449" y="12" type="line" smooth="yes"/>
      <point x="449" y="-33"/>
      <point x="427" y="-56"/>
      <point x="392" y="-56" type="curve" smooth="yes"/>
      <point x="348" y="-56"/>
      <point x="330" y="-16"/>
      <point x="326" y="19" type="curve"/>
      <point x="266" y="19" type="line"/>
      <point x="263" y="-16"/>
      <point x="250" y="-56"/>
      <point x="192" y="-56" type="curve" smooth="yes"/>
      <point x="140" y="-56" type="line"/>
    </contour>
    <contour>
      <point x="529.0" y="-65.0" type="move" name="bottomright"/>
    </contour>
    <contour>
      <point x="295.0" y="558.0" type="move" name="top"/>
    </contour>
    <contour>
      <point x="529.0" y="600.0" type="move" name="topright"/>
    </contour>
  </outline>
</glyph>
